<svg width="100" height="100" viewBox="0 0 100 100" fill="none" xmlns="http://www.w3.org/2000/svg">
<path d="M44.875 39.7188H46.2812C50.1146 39.7188 52.4062 41.0208 53.1562 43.625C53.3958 44.4688 53.5156 45.4427 53.5156 46.5469V61H44.875V39.7188ZM33.2812 39.7188H41.9688V61H33.2812V39.7188ZM21.6562 39.7188H30.3438V61H21.6562V39.7188ZM69.6094 39.7344H71.0156C74.849 39.7344 77.1354 41.0312 77.875 43.625C78.125 44.4792 78.25 45.4583 78.25 46.5625V61H69.6094V39.7344ZM58.0781 46.5625C58.0781 44.2604 58.6042 42.5729 59.6562 41.5C60.8125 40.3229 62.6979 39.7344 65.3125 39.7344H66.7188V61H58.0781V46.5625Z" fill="black"/>
<rect x="4" y="4" width="92" height="92" rx="46" stroke="black" stroke-width="8"/>
</svg>
